<svg xmlns="http://www.w3.org/2000/svg" viewBox="2102 -147 24 24"><defs><style>.a{fill:#778b95;opacity:0;}.b{fill:#8799a2;}.c{fill:none;stroke:#8799a2;stroke-width:2px;}</style></defs><rect class="a" width="24" height="24" transform="translate(2102 -147)"/><g transform="translate(2007 -147)"><path class="b" d="M99,6V8H97V6h2m0-1H97a.945.945,0,0,0-1,1V8a.945.945,0,0,0,1,1h2a.945.945,0,0,0,1-1V6a.945.945,0,0,0-1-1Z"/><path class="c" d="M0,0H15" transform="translate(103 7)"/><path class="b" d="M99,11v2H97V11h2m0-1H97a.945.945,0,0,0-1,1v2a.945.945,0,0,0,1,1h2a.945.945,0,0,0,1-1V11a.945.945,0,0,0-1-1Z"/><path class="c" d="M0,0H15" transform="translate(103 12)"/><path class="b" d="M99,16v2H97V16h2m0-1H97a.945.945,0,0,0-1,1v2a.945.945,0,0,0,1,1h2a.945.945,0,0,0,1-1V16a.945.945,0,0,0-1-1Z"/><path class="c" d="M0,0H15" transform="translate(103 17)"/></g></svg>