<svg xmlns="http://www.w3.org/2000/svg" xmlns:xlink="http://www.w3.org/1999/xlink" viewBox="1561 173 24 24"><defs><style>.a{fill:#768b95;}.b{clip-path:url(#a);}</style><clipPath id="a"><path class="a" d="M0,0H24V24H0Z"/></clipPath></defs><g class="b" transform="translate(1561 173)"><path class="a" d="M7.24,8.75a3.434,3.434,0,0,1-.39-1.67,3.491,3.491,0,0,1,.4-1.67A3.788,3.788,0,0,1,8.36,4.12a5.73,5.73,0,0,1,1.7-.83A7.875,7.875,0,0,1,12.24,3a6.742,6.742,0,0,1,2.21.34,4.94,4.94,0,0,1,1.69.94,4.075,4.075,0,0,1,1.08,1.43,4.314,4.314,0,0,1,.38,1.81H14.59a2.336,2.336,0,0,0-.15-.85A1.635,1.635,0,0,0,14,5.99a2.126,2.126,0,0,0-.75-.44,3.376,3.376,0,0,0-1.06-.16,3.534,3.534,0,0,0-1.03.13,2.207,2.207,0,0,0-.72.36,1.648,1.648,0,0,0-.44.55,1.517,1.517,0,0,0-.15.66,1.439,1.439,0,0,0,.74,1.21A5.761,5.761,0,0,0,12,9H7.39C7.34,8.92,7.28,8.83,7.24,8.75ZM21,12V10H3v2h9.62c.18.07.4.14.55.2a4.161,4.161,0,0,1,.87.51,1.35,1.35,0,0,1,.43.57,2.08,2.08,0,0,1,.11.69,1.663,1.663,0,0,1-.14.66,1.413,1.413,0,0,1-.42.53,2.141,2.141,0,0,1-.71.35,3.81,3.81,0,0,1-1.01.13,4.792,4.792,0,0,1-1.18-.13,2.545,2.545,0,0,1-.91-.42,1.919,1.919,0,0,1-.59-.75,3.094,3.094,0,0,1-.25-1.21H6.4a4.942,4.942,0,0,0,.24,1.58,4.268,4.268,0,0,0,.65,1.21,4.517,4.517,0,0,0,.98.92,5.69,5.69,0,0,0,1.22.65,7.818,7.818,0,0,0,1.38.39,8.761,8.761,0,0,0,1.44.13,7.783,7.783,0,0,0,2.18-.28,5.277,5.277,0,0,0,1.67-.79,3.536,3.536,0,0,0,1.07-1.27,3.774,3.774,0,0,0,.38-1.71,3.92,3.92,0,0,0-.31-1.61,3.413,3.413,0,0,0-.17-.33H21Z" transform="translate(0 1)"/></g></svg>