<svg xmlns="http://www.w3.org/2000/svg" viewBox="1718 15.962 24 24"><defs><style>.a{fill:#778b95;opacity:0;}.b,.c{fill:none;stroke:#778b95;}.b{stroke-width:1.5px;}.c{stroke-width:1px;}</style></defs><g transform="translate(1464 -208.1)"><g transform="translate(66 123)"><rect class="a" width="24" height="24" transform="translate(188 101.063)"/><g transform="translate(191 106.1)"><g transform="translate(1 0.85)"><path class="b" d="M17,12.617a.76.76,0,0,1-.727.683H1.727A.76.76,0,0,1,1,12.617V1.683A.76.76,0,0,1,1.727,1H16.273A.76.76,0,0,1,17,1.683Z" transform="translate(-1 -1)"/></g><path class="b" d="M1,11,6.091,7l4.364,4,2.909-2L17,13" transform="translate(0 -2)"/><circle class="c" cx="1.125" cy="1.125" r="1.125" transform="translate(12.5 3)"/></g></g></g></svg>