<svg xmlns="http://www.w3.org/2000/svg" xmlns:xlink="http://www.w3.org/1999/xlink" viewBox="32 32 80 92"><defs><style>.a{fill:url(#a);}</style><linearGradient id="a" x1="0.001" y1="0.5" x2="1" y2="0.5" gradientUnits="objectBoundingBox"><stop offset="0" stop-color="#6cc04a"/><stop offset="0.252" stop-color="#66b848"/><stop offset="0.655" stop-color="#54a044"/><stop offset="1" stop-color="#41873f"/></linearGradient></defs><path class="a" d="M79.9,24.32V67.706a2.716,2.716,0,0,1-1.444,2.335L41.2,91.636a3.11,3.11,0,0,1-1.348.389,2.194,2.194,0,0,1-1.348-.389l-13.67-7.977a2.706,2.706,0,0,1-.963-3.7,2.56,2.56,0,0,1,3.562-.973l12.226,7.2L74.124,66.149V25.876L39.948,5.74,5.772,25.876V66.441c2.888,2.918,7.124,5.739,9.049,6.42.578-1.751.674-4.834.674-8.725V29.116h5.776v14.3l12.2-14.3h6.739L26.182,45.945,42.717,64.136H36.075l-14.8-16.051-.04,16.051c0,3.891-.73,10.671-3.136,13.1a3.428,3.428,0,0,1-2.7.973c-4.428,0-12.226-6.518-14.537-8.463A2.749,2.749,0,0,1-.1,67.706V24.32a2.832,2.832,0,0,1,1.348-2.335L38.6.39a2.672,2.672,0,0,1,2.7,0l37.16,21.693A2.459,2.459,0,0,1,79.9,24.32ZM63.647,37.969a8.818,8.818,0,0,1-2.7,6.323A10.685,10.685,0,0,1,64.8,48.961a11.715,11.715,0,0,1,.866,4.572A10.407,10.407,0,0,1,64.609,58.2a11.487,11.487,0,0,1-3.081,3.4,17.445,17.445,0,0,1-9.338,2.529H44.2V29.116h7.99c3.755,0,6.546.778,8.472,2.14a7.05,7.05,0,0,1,2.31,3.016A9.034,9.034,0,0,1,63.647,37.969Zm-13.67,6.518a14.507,14.507,0,0,0,3.466-1.167,11.032,11.032,0,0,0,3.947-2.432,4.244,4.244,0,0,0,1.444-3.016,3.123,3.123,0,0,0-1.059-2.724c-1.251-.973-3.755-1.265-5.584-1.265H49.976Zm10.975,9.047a5.975,5.975,0,0,0-1.829-4.572,8.745,8.745,0,0,0-2.6-1.751c-.481.195-.866.389-1.444.584a50.631,50.631,0,0,1-5.2,1.556v9.728H52a12.7,12.7,0,0,0,6.739-1.751C60.374,56.646,60.951,55.284,60.951,53.533Z" transform="translate(32.1 31.975)"/></svg>