<svg xmlns="http://www.w3.org/2000/svg" viewBox="2572 127 26 26"><defs><style>.a{fill:#8799a2;}</style></defs><g transform="translate(1409 114.9)"><path class="a" d="M1176,20.7a4.4,4.4,0,1,1-4.4,4.4,4.439,4.439,0,0,1,4.4-4.4m0-1a5.4,5.4,0,1,0,5.4,5.4,5.378,5.378,0,0,0-5.4-5.4Z"/><path class="a" d="M1177.6,13.1l.4,3.2a9.612,9.612,0,0,1,2.8,1.1l2.6-2,2.2,2.2-2,2.6a11.817,11.817,0,0,1,1.2,2.8l3.2.4v3.2l-3.2.4a9.61,9.61,0,0,1-1.1,2.8l2,2.6-2.2,2.2-2.6-1.9a11.822,11.822,0,0,1-2.8,1.2l-.4,3.2h-3.2l-.4-3.2a9.612,9.612,0,0,1-2.8-1.1l-2.6,1.9-2.2-2.2,1.9-2.6a13.9,13.9,0,0,1-1.2-2.8l-3.2-.4V23.5l3.2-.4a7.012,7.012,0,0,1,1.2-2.8l-2-2.5,2.2-2.2,2.6,2a11.822,11.822,0,0,1,2.8-1.2l.4-3.2h3.2m0-1.1h-3.2a1.063,1.063,0,0,0-1,.9l-.3,2.6a7.106,7.106,0,0,0-1.8.8l-2.1-1.6a1.421,1.421,0,0,0-.6-.2.908.908,0,0,0-.7.3l-2.2,2.2a.942.942,0,0,0-.1,1.3l1.6,2a14.171,14.171,0,0,0-.8,1.8l-2.5.3a1.063,1.063,0,0,0-.9,1v3.2a1.063,1.063,0,0,0,.9,1l2.5.3a7.1,7.1,0,0,0,.8,1.8l-1.5,2.1a1.048,1.048,0,0,0,.1,1.3l2.2,2.2a.908.908,0,0,0,.7.3,1.421,1.421,0,0,0,.6-.2l2-1.5a13.35,13.35,0,0,0,1.8.7l.3,2.5a1.063,1.063,0,0,0,1,.9h3.2a1.063,1.063,0,0,0,1-.9l.3-2.5a7.106,7.106,0,0,0,1.8-.8l2.1,1.5a1.421,1.421,0,0,0,.6.2.908.908,0,0,0,.7-.3l2.2-2.2a.942.942,0,0,0,.1-1.3l-1.5-2a6.7,6.7,0,0,0,.7-1.8l2.5-.3a1.063,1.063,0,0,0,.9-1V23.5a1.063,1.063,0,0,0-.9-1l-2.5-.3a14.153,14.153,0,0,0-.8-1.8l1.5-2.1a.935.935,0,0,0-.1-1.3l-2.2-2.2a.908.908,0,0,0-.7-.3,1.421,1.421,0,0,0-.6.2l-2.1,1.6a13.35,13.35,0,0,0-1.8-.7l-.3-2.6a.839.839,0,0,0-.9-.9Z"/></g></svg>